<svg xmlns="http://www.w3.org/2000/svg" width="122.13" height="171.399" viewBox="0 0 122.13 171.399"><g transform="translate(-16.41 -20.991)"><path d="M16.83,21.07c40.57-.16,81.14-.02,121.71-.07q-.015,60.51,0,121c-40.58-.06-81.16.1-121.73-.07Q17.125,81.51,16.83,21.07ZM49.7,32.41c.11,7.01-.14,14.03.16,21.04-7.12.39-14.26.03-21.38.17-.02,18.46.01,36.92-.03,55.38H49.71c.02,7.3.03,14.59-.01,21.89,18.6.02,37.2-.05,55.8.03V109h21.32q-.075-27.66,0-55.32c-7.1.06-14.21-.05-21.32.07,0-7.15.02-14.29-.03-21.43C86.88,32.52,68.29,32.35,49.7,32.41Z" fill="#02696e"/><path d="M60.45,43.22c11.6.1,23.2.01,34.8.04q-.03,21.78,0,43.55c3.42-.09,6.83-.09,10.25,0V64.58c3.65.02,7.31.04,10.96.05-.11,11.07,0,22.15-.05,33.23-14.9,0-29.8-.03-44.7.01q.06,5.565-.04,11.13,11.82,0,23.63,0-.09,5.46-.04,10.93c-11.6.03-23.21-.09-34.82.06.04-14.7-.05-29.4.05-44.09-3.66.01-7.32.02-10.98.01.05,7.32.02,14.64.02,21.96q-5.13-.12-10.27,0c0-11.06.02-22.11-.01-33.17,15.01.04,30.02.01,45.03.02-.02-3.67-.06-7.34.1-11.01-7.95-.18-15.91-.15-23.85,0C60.41,50.21,60.43,46.72,60.45,43.22Z" fill="#02696e"/><path d="M69.99,179.63c-2.67,1.57-2.24,6.05.63,7.15a3.837,3.837,0,0,0,5.24-3.82C76.2,180.02,72.3,177.94,69.99,179.63Z" fill="#3c5cfc"/><path d="M103.88,179.48c-2.05.99-3.25,3.83-1.62,5.73a3.9,3.9,0,0,0,6.53.12C111.4,182.39,107.28,177.45,103.88,179.48Z" fill="#3c5cfc"/><path d="M46.16,166.64c.33,2.19,2.6,2.23,4.23,2.87a19.7,19.7,0,0,1,10.14,8.02c2.86-4.07,6.93-7.51,11.88-8.57a2.791,2.791,0,0,0,2.51-2.35C65.33,166.56,55.75,166.49,46.16,166.64Z" fill="#02696e"/><path d="M81.473,166.56c.13.49-.121,1.45,0,1.94,5.11,1.28,10.218,4.2,13.008,8.79a20.89,20.89,0,0,1,13.67-8.71c.13-.49.39-1.46.52-1.94C99.52,166.47,90.623,166.62,81.473,166.56Z" fill="#02696e"/><path d="M16.41,153.48v38.91H138.54V153.48ZM125.9,186.97a14.73,14.73,0,0,0-14.35-13.03c-7.17-.09-13.87,5.88-14.41,13.07-1.71.04-3.41.04-5.12-.01-.47-8.79-10.37-15.34-18.64-12.36-5.5,1.62-9.19,6.67-10.18,12.16-1.82.07-3.65.12-5.48.18a14.143,14.143,0,0,0-11.23-12.51c.14,4.07.14,8.14.04,12.22-2.25-.03-4.51-.03-6.76-.03-.01-4.09.01-8.18.01-12.26A15.188,15.188,0,0,0,28.9,186.51c-1.77.79-3.85.29-5.74.43.75-7.26,5.26-14.28,12.16-17.03,1.81-.88,4.66-.66,4.77-3.33-.278-.018-.875-.049-.875-.049l-16.055.018s.06-2.079.01-2.649c5.55.02,16.64.07,16.64.07l.023-3.77s-10.393.06-15.5.13c0-.58.01-1.75.01-2.33,7.41-.01,14.83.02,22.24.01,1.85.2,3.37-.93,4.88-1.81,3.27.01,6.53-.02,9.79-.04-2.67,5.72-9.55,3.95-14.59,4.11-.04,1.2-.13,3.6-.13,3.6l28.02.08.01-4.82,6.9-.02.02,4.85,26.83-.07.04-4.82,6.81.11-.02,4.78,16.68-.08.1,2.82s-11.42-.06-16.9-.16c.06.54.17,1.63.23,2.18,8.91,1.72,15.21,9.72,16.67,18.41C129.91,187.1,127.91,187.06,125.9,186.97Z" fill="#02696e"/><path d="M49.7,32.41c18.59-.06,37.18.11,55.77-.09.05,7.14.03,14.28.03,21.43,7.11-.12,14.22-.01,21.32-.07q-.075,27.66,0,55.32H105.5v21.92c-18.6-.08-37.2-.01-55.8-.03.04-7.3.03-14.59.01-21.89H28.45c.04-18.46.01-36.92.03-55.38,7.12-.14,14.26.22,21.38-.17C49.56,46.44,49.81,39.42,49.7,32.41ZM60.45,43.22c-.02,3.5-.04,6.99.08,10.49,7.94-.15,15.9-.18,23.85,0-.16,3.67-.12,7.34-.1,11.01-15.01-.01-30.02.02-45.03-.02.03,11.06.01,22.11.01,33.17q5.145-.12,10.27,0c0-7.32.03-14.64-.02-21.96,3.66.01,7.32,0,10.98-.01-.1,14.69-.01,29.39-.05,44.09,11.61-.15,23.22-.03,34.82-.06q-.045-5.475.04-10.93-11.805.015-23.63,0,.1-5.565.04-11.13c14.9-.04,29.8-.01,44.7-.01.05-11.08-.06-22.16.05-33.23-3.65-.01-7.31-.03-10.96-.05V86.81c-3.42-.09-6.83-.09-10.25,0q-.045-21.78,0-43.55C83.65,43.23,72.05,43.32,60.45,43.22Z" fill="#fed202"/><path d="M69.99,179.63c2.31-1.69,6.21.39,5.87,3.33a3.837,3.837,0,0,1-5.24,3.82C67.75,185.68,67.32,181.2,69.99,179.63Z" fill="#fed202"/><path d="M103.88,179.48c3.4-2.03,7.52,2.91,4.91,5.85a3.9,3.9,0,0,1-6.53-.12C100.63,183.31,101.83,180.47,103.88,179.48Z" fill="#fed202"/></g></svg>