<svg xmlns="http://www.w3.org/2000/svg" width="121.73" height="121.02" viewBox="0 0 121.73 121.02"><g transform="translate(-16.81 -20.991)"><path d="M16.83,21.07c40.57-.16,81.14-.02,121.71-.07q-.015,60.51,0,121c-40.58-.06-81.16.1-121.73-.07Q17.125,81.51,16.83,21.07ZM49.7,32.41c.11,7.01-.14,14.03.16,21.04-7.12.39-14.26.03-21.38.17-.02,18.46.01,36.92-.03,55.38H49.71c.02,7.3.03,14.59-.01,21.89,18.6.02,37.2-.05,55.8.03V109h21.32q-.075-27.66,0-55.32c-7.1.06-14.21-.05-21.32.07,0-7.15.02-14.29-.03-21.43C86.88,32.52,68.29,32.35,49.7,32.41Z" fill="#02696e"/><path d="M60.45,43.22c11.6.1,23.2.01,34.8.04q-.03,21.78,0,43.55c3.42-.09,6.83-.09,10.25,0V64.58c3.65.02,7.31.04,10.96.05-.11,11.07,0,22.15-.05,33.23-14.9,0-29.8-.03-44.7.01q.06,5.565-.04,11.13,11.82,0,23.63,0-.09,5.46-.04,10.93c-11.6.03-23.21-.09-34.82.06.04-14.7-.05-29.4.05-44.09-3.66.01-7.32.02-10.98.01.05,7.32.02,14.64.02,21.96q-5.13-.12-10.27,0c0-11.06.02-22.11-.01-33.17,15.01.04,30.02.01,45.03.02-.02-3.67-.06-7.34.1-11.01-7.95-.18-15.91-.15-23.85,0C60.41,50.21,60.43,46.72,60.45,43.22Z" fill="#02696e"/><path d="M49.7,32.41c18.59-.06,37.18.11,55.77-.09.05,7.14.03,14.28.03,21.43,7.11-.12,14.22-.01,21.32-.07q-.075,27.66,0,55.32H105.5v21.92c-18.6-.08-37.2-.01-55.8-.03.04-7.3.03-14.59.01-21.89H28.45c.04-18.46.01-36.92.03-55.38,7.12-.14,14.26.22,21.38-.17C49.56,46.44,49.81,39.42,49.7,32.41ZM60.45,43.22c-.02,3.5-.04,6.99.08,10.49,7.94-.15,15.9-.18,23.85,0-.16,3.67-.12,7.34-.1,11.01-15.01-.01-30.02.02-45.03-.02.03,11.06.01,22.11.01,33.17q5.145-.12,10.27,0c0-7.32.03-14.64-.02-21.96,3.66.01,7.32,0,10.98-.01-.1,14.69-.01,29.39-.05,44.09,11.61-.15,23.22-.03,34.82-.06q-.045-5.475.04-10.93-11.805.015-23.63,0,.1-5.565.04-11.13c14.9-.04,29.8-.01,44.7-.01.05-11.08-.06-22.16.05-33.23-3.65-.01-7.31-.03-10.96-.05V86.81c-3.42-.09-6.83-.09-10.25,0q-.045-21.78,0-43.55C83.65,43.23,72.05,43.32,60.45,43.22Z" fill="#fed202"/></g></svg>